<svg width="197" height="35" viewBox="0 0 197 35" fill="none" xmlns="http://www.w3.org/2000/svg">
<g id="Group 771">
<path id="Vector" d="M187.713 12.4848C189.566 14.3395 191.077 17.3728 190.213 19.1717C187.895 23.9936 170.604 32.4444 169.132 30.983C167.666 29.5228 176.161 12.2992 181.002 9.99013C182.811 9.13349 185.857 10.6521 187.719 12.4822L187.712 12.5003V12.4848H187.713ZM196.876 10.4522C196.575 9.34246 195.806 8.22363 194.66 8.08995C192.561 7.84853 189.248 11.5464 189.483 12.4238C189.719 13.3193 194.393 14.8574 196.132 13.6114C197.033 12.9702 197.15 11.5866 196.857 10.4781L196.876 10.4522ZM190.369 0.204983C191.931 0.625514 193.507 1.69501 193.695 3.29667C194.035 6.22871 188.829 10.8494 187.594 10.5184C186.358 10.1926 184.18 3.66009 185.939 1.22256C186.845 -0.0390294 188.809 -0.212953 190.371 0.199791V0.204983H190.369Z" fill="white"/>
<text id="CiaoChow" fill="white" xml:space="preserve" style="white-space: pre" font-family="Montserrat Alternates" font-size="28.0354" font-weight="600" letter-spacing="0em"><tspan x="8.99059" y="27.1834">CiaoChow</tspan></text>
</g>
</svg>
